<svg height="256" viewBox="0 0 512 512" width="256" xmlns="http://www.w3.org/2000/svg"><g fill="#4b4b4b"><path d="m19.564 447.635h24.231v65.371h-24.231z" transform="matrix(-.7071 -.7071 .7071 -.7071 -285.559 842.3594)"/><path d="m.17 494.699 46.224-45.89 16.794 17.136-46.055 45.715z"/><path d="m263.682 147.594-220.209 264.872 56.061 56.061 264.872-220.21zm-164.148 320.934 264.872-220.21"/><path d="m43.642 412.297 220.223-264.551 100.371 100.738-264.687 219.719z"/><path d="m273.211 120.521 118.268 118.268c29.522.34 59.073-10.42 82.226-31.882l-168.613-168.612c-21.461 23.152-32.22 52.704-31.881 82.226z"/><path d="m391.48 238.551-118.1-118.199c-.279-30.238 11.02-59.379 31.887-81.891l168.268 168.614c-22.131 20.18-50.791 31.484-80.695 31.484z"/><path d="m477.097 34.904c-39.747-39.748-100.507-45.498-146.485-17.504l163.988 163.987c27.994-45.978 22.244-106.737-17.503-146.483z"/><path d="m330.783 17.23c18.611-10.984 40.072-16.992 62.018-16.992 31.787 0 61.664 12.371 84.127 34.832 38.895 38.898 46.123 98.863 17.625 145.93z"/></g></svg>